HIERARCHY
ROOT Hips
{
	OFFSET 0.00 0.00 0.00
	CHANNELS 6 Xposition Yposition Zposition Xrotation Yrotation Zrotation
	JOINT Spine
	{
		OFFSET 0.00000 7.17041 0.00000
		CHANNELS 3 Xrotation Yrotation Zrotation
		JOINT Head
		{
			OFFSET 0.00000 14.27615 0.00000
			CHANNELS 3 Xrotation Yrotation Zrotation
			End Site
			{
				OFFSET 0.00000 4.52755 0.00000
			}
		}
		JOINT LeftShoulder
		{
			OFFSET 0.00000 10.71824 0.00000
			CHANNELS 3 Xrotation Yrotation Zrotation
			JOINT LeftArm
			{
				OFFSET 7.05887 0.00000 0.00000
				CHANNELS 3 Xrotation Yrotation Zrotation
				JOINT LeftForeArm
				{
					OFFSET 10.95552 0.00000 0.00000
					CHANNELS 3 Yrotation Zrotation Xrotation
					JOINT LeftHand
					{
						OFFSET 8.19372 0.00000 0.00000
						CHANNELS 3 Xrotation Yrotation Zrotation
						JOINT LeftHandThumb1
						{
							OFFSET 0.00000 0.00000 0.00000
							CHANNELS 3 Xrotation Zrotation Yrotation
							End Site
							{
								OFFSET 0.00000 0.00000 3.93700
							}
						}
						End Site
						{
							OFFSET 3.93700 0.00000 0.00000
						}
					}
				}
			}
		}
		JOINT RightShoulder
		{
			OFFSET 0.00000 10.71824 0.00000
			CHANNELS 3 Xrotation Yrotation Zrotation
			JOINT RightArm
			{
				OFFSET -7.05887 0.00000 0.00000
				CHANNELS 3 Xrotation Yrotation Zrotation
				JOINT RightForeArm
				{
					OFFSET -10.95552 0.00000 0.00000
					CHANNELS 3 Yrotation Zrotation Xrotation
					JOINT RightHand
					{
						OFFSET -8.19372 0.00000 0.00000
						CHANNELS 3 Xrotation Yrotation Zrotation
						JOINT RightHandThumb1
						{
							OFFSET 0.00000 0.00000 0.00000
							CHANNELS 3 Xrotation Zrotation Yrotation
							End Site
							{
								OFFSET 0.00000 0.00000 3.93700
							}
						}
						End Site
						{
							OFFSET -3.93700 0.00000 0.00000
						}
					}
				}
			}
		}
	}
	JOINT LeftUpLeg
	{
		OFFSET 4.31835 0.00000 0.00000
		CHANNELS 3 Xrotation Yrotation Zrotation
		JOINT LeftLeg
		{
			OFFSET 0.00000 -17.32364 0.00000
			CHANNELS 3 Xrotation Yrotation Zrotation
			JOINT LeftFoot
			{
				OFFSET 0.00000 -16.27037 0.00000
				CHANNELS 3 Xrotation Yrotation Zrotation
				JOINT LeftToeBase
				{
					OFFSET 0.00000 -1.27412 4.75510
					CHANNELS 3 Xrotation Yrotation Zrotation
					End Site
					{
						OFFSET 0.00000 0.00000 2.95275
					}
				}
			}
		}
	}
	JOINT RightUpLeg
	{
		OFFSET -4.31835 0.00000 0.00000
		CHANNELS 3 Xrotation Yrotation Zrotation
		JOINT RightLeg
		{
			OFFSET 0.00000 -17.32364 0.00000
			CHANNELS 3 Xrotation Yrotation Zrotation
			JOINT RightFoot
			{
				OFFSET 0.00000 -16.27037 0.00000
				CHANNELS 3 Xrotation Yrotation Zrotation
				JOINT RightToeBase
				{
					OFFSET 0.00000 -1.27412 4.75510
					CHANNELS 3 Xrotation Yrotation Zrotation
					End Site
					{
						OFFSET 0.00000 0.00000 2.95275
					}
				}
			}
		}
	}
}
MOTION
Frames: 17
Frame Time: 0.008333
 -4.5897 35.4501 -11.8612 -2.6335 -8.4228 -6.4980 1.0373 2.4788 11.7670 -0.3914 6.4733 -6.1032 9.0932 23.2559 6.2060 -58.8920 -8.2320 -17.8248 -4.0732 0.0000 35.5672 1.0328 8.1586 -7.2395 33.1476 -0.0000 26.2537 -14.7624 -0.7923 -21.7070 -19.4417 0.9393 9.1785 15.7180 -0.0000 35.5055 0.8653 -2.1519 21.9118 32.8623 0.0000 -24.3270 10.7828 12.4340 0.6078 -9.7100 0.0000 0.0000 -14.9361 33.1109 8.1490 21.1127 0.0000 -0.0000 -0.5920 -0.0678 5.5339 13.9311 -0.0000 0.0000 -11.7384 -24.3621 -2.2488 -3.0926 0.0000 -0.0000
 -4.5720 35.4506 -11.8531 -2.6497 -8.5768 -6.5082 1.0344 2.5460 11.7602 -0.4041 6.5033 -6.1530 8.9674 23.2861 6.2655 -58.8202 -8.1614 -17.7779 -4.0652 0.0000 35.5455 1.0242 8.1138 -7.2187 33.1476 -0.0000 26.2537 -14.7789 -0.7571 -21.7056 -19.3130 0.9831 9.1672 15.7750 -0.0000 35.5027 0.9151 -2.2669 21.9905 32.8623 0.0000 -24.3270 10.8171 12.5010 0.5574 -9.6993 -0.0000 -0.0000 -14.9738 33.1898 8.1822 21.0979 -0.0000 0.0000 -0.8290 0.0811 5.4377 14.3942 -0.0000 0.0000 -12.3272 -24.0322 -1.9309 -4.4740 0.0000 -0.0000
 -4.5573 35.4514 -11.8444 -2.6702 -8.6730 -6.5089 1.0586 2.5520 11.7444 -0.4445 6.5970 -6.2057 9.0969 23.3545 6.1653 -58.9726 -8.1564 -17.7014 -4.0650 0.0000 35.5260 1.0272 8.1231 -7.2319 33.1476 -0.0000 26.2537 -14.7828 -0.7353 -21.7220 -19.2918 1.0204 9.1928 15.8179 -0.0000 35.5370 0.9105 -2.2676 21.8831 32.8623 0.0000 -24.3270 10.8417 12.5891 0.5078 -9.6694 -0.0000 0.0000 -15.0019 33.2137 8.2027 21.0793 0.0000 0.0000 -0.9964 0.1985 5.3406 14.7198 -0.0000 0.0000 -13.1017 -23.7597 -1.9341 -5.0673 0.0000 0.0000
 -4.5465 35.4527 -11.8356 -2.6918 -8.7247 -6.5210 1.0797 2.5335 11.7563 -0.4618 6.6598 -6.3229 9.0854 23.3827 6.1344 -59.0180 -8.1041 -17.6511 -4.0865 0.0000 35.5612 1.0379 8.1565 -7.2771 33.1476 -0.0000 26.2537 -14.7864 -0.6971 -21.7731 -19.2621 1.0321 9.2251 15.7890 -0.0000 35.4566 0.8679 -2.1743 21.7660 32.8623 0.0000 -24.3270 10.8650 12.6917 0.4775 -9.6462 -0.0000 0.0000 -15.0164 33.1999 8.1856 21.0375 -0.0000 0.0000 -1.0976 0.3340 5.2686 14.8716 0.0000 -0.0000 -13.9069 -23.7975 -2.1665 -5.0802 -0.0000 -0.0000
 -4.5396 35.4549 -11.8264 -2.7298 -8.7313 -6.5500 1.1346 2.4717 11.7800 -0.5016 6.7188 -6.4312 9.0712 23.4456 6.0877 -59.0309 -8.1215 -17.6329 -4.0638 0.0000 35.5534 1.0524 8.2416 -7.3026 33.1476 -0.0000 26.2537 -14.7891 -0.6475 -21.8111 -19.2586 1.0286 9.2423 15.7899 -0.0000 35.5263 0.8891 -2.2197 21.8343 32.8623 0.0000 -24.3270 10.8930 12.7898 0.4733 -9.6130 0.0000 0.0000 -15.0419 33.1581 8.1652 21.0466 -0.0000 0.0000 -1.1385 0.4399 5.2259 14.9082 -0.0000 0.0000 -14.5795 -24.0414 -2.3230 -4.9044 -0.0000 0.0000
 -4.5335 35.4580 -11.8135 -2.7784 -8.7187 -6.5839 1.1901 2.4049 11.8306 -0.5152 6.7763 -6.5763 8.8911 23.4893 6.1195 -58.9375 -8.0668 -17.6698 -4.0913 0.0000 35.5253 1.0560 8.3209 -7.2585 33.1476 -0.0000 26.2537 -14.8161 -0.5851 -21.8969 -19.3365 0.9700 9.2844 15.8302 -0.0000 35.5895 0.9172 -2.2782 21.9367 32.8623 0.0000 -24.3270 10.9363 12.9096 0.4717 -9.5818 0.0000 0.0000 -15.0461 33.0865 8.1672 21.0215 -0.0000 0.0000 -1.1154 0.5313 5.1936 14.8093 0.0000 0.0000 -15.1192 -24.4134 -2.6119 -4.9374 -0.0000 -0.0000
 -4.5310 35.4621 -11.7988 -2.8329 -8.6696 -6.6307 1.2431 2.3179 11.9083 -0.5052 6.8013 -6.7623 8.9394 23.5320 6.0241 -58.9704 -8.0811 -17.6775 -4.0681 0.0000 35.4053 1.0518 8.3390 -7.2151 33.1476 -0.0000 26.2537 -14.8583 -0.4985 -21.9943 -19.3069 0.9155 9.3076 15.8001 -0.0000 35.5368 0.8678 -2.1713 21.7918 32.8623 0.0000 -24.3270 10.9844 13.0178 0.4936 -9.5560 0.0000 -0.0000 -15.0441 32.9999 8.1257 20.9914 -0.0000 0.0000 -1.0330 0.5949 5.1842 14.5991 0.0000 -0.0000 -15.7324 -24.9010 -3.1637 -4.3614 -0.0000 -0.0000
 -4.5304 35.4672 -11.7829 -2.8738 -8.6093 -6.6856 1.2686 2.2215 12.0164 -0.4647 6.8346 -6.9871 8.9792 23.5529 5.9112 -58.9739 -8.0857 -17.6694 -4.0799 0.0000 35.3548 1.0502 8.3730 -7.1749 33.1476 -0.0000 26.2537 -14.8675 -0.4068 -22.0936 -19.2960 0.8634 9.3052 15.7370 -0.0000 35.4511 0.8576 -2.1524 21.7303 32.8623 0.0000 -24.3270 11.0184 13.1379 0.5318 -9.5332 -0.0000 0.0000 -15.0328 32.9038 8.0635 20.9880 -0.0000 -0.0000 -0.9357 0.6377 5.1979 14.2987 0.0000 -0.0000 -16.1729 -25.5693 -3.4387 -3.9767 0.0000 0.0000
 -4.5318 35.4721 -11.7639 -2.9189 -8.5529 -6.7401 1.2829 2.1472 12.1278 -0.4062 6.8493 -7.2154 9.0486 23.5881 5.7803 -58.9798 -8.1377 -17.6922 -4.0568 0.0000 35.2641 1.0546 8.4038 -7.1789 33.1476 -0.0000 26.2537 -14.8790 -0.3313 -22.2006 -19.3191 0.8045 9.3064 15.7337 -0.0000 35.4417 0.8835 -2.1957 21.9243 32.8623 0.0000 -24.3270 11.0719 13.2479 0.5687 -9.5268 0.0000 -0.0000 -15.0095 32.7924 8.0887 20.9808 0.0000 -0.0000 -0.7950 0.6243 5.2171 13.9188 0.0000 -0.0000 -16.5180 -26.1648 -3.7880 -3.5256 -0.0000 0.0000
 -4.5359 35.4756 -11.7445 -2.9573 -8.4745 -6.7866 1.2924 2.0616 12.2191 -0.3657 6.8580 -7.4056 9.0941 23.6438 5.6950 -58.9906 -8.1663 -17.7764 -4.0377 0.0000 35.1522 1.0618 8.5242 -7.1273 33.1476 -0.0000 26.2537 -14.8612 -0.2891 -22.3029 -19.3661 0.7669 9.3200 15.7011 -0.0000 35.3878 0.9003 -2.2219 22.0648 32.8623 0.0000 -24.3270 11.1137 13.3443 0.6104 -9.5089 0.0000 0.0000 -15.0122 32.6880 8.0417 20.9932 -0.0000 0.0000 -0.6446 0.5656 5.2369 13.5174 0.0000 -0.0000 -16.6741 -26.7036 -4.0445 -3.1549 -0.0000 -0.0000
 -4.5412 35.4783 -11.7250 -2.9964 -8.3724 -6.8234 1.2975 1.9652 12.3065 -0.3002 6.8621 -7.6131 9.0967 23.6617 5.6114 -58.9523 -8.2147 -17.8295 -4.0076 0.0000 35.0812 1.0654 8.5256 -7.1499 33.1476 -0.0000 26.2537 -14.8334 -0.2384 -22.3859 -19.4038 0.7231 9.2821 15.6236 -0.0000 35.3360 0.8616 -2.1333 21.9992 32.8623 0.0000 -24.3270 11.1554 13.4182 0.6512 -9.4907 -0.0000 -0.0000 -14.9899 32.5904 7.9653 20.9697 -0.0000 0.0000 -0.4620 0.4806 5.2418 13.0500 -0.0000 0.0000 -16.5730 -27.1021 -4.1772 -2.8899 0.0000 0.0000
 -4.5492 35.4792 -11.7048 -3.0262 -8.2293 -6.8399 1.2864 1.8631 12.3744 -0.2256 6.8460 -7.8380 9.1249 23.6276 5.5207 -58.9201 -8.2498 -17.8525 -4.0040 0.0000 35.0161 1.0498 8.4747 -7.0878 33.1476 -0.0000 26.2537 -14.8138 -0.2044 -22.4837 -19.4249 0.6602 9.2466 15.6132 -0.0000 35.3890 0.8705 -2.1578 21.9771 32.8623 0.0000 -24.3270 11.1803 13.4580 0.6896 -9.4494 0.0000 0.0000 -15.0173 32.4557 7.9452 21.0013 -0.0000 0.0000 -0.2581 0.2713 5.2541 12.5573 -0.0000 -0.0000 -16.2451 -27.3861 -4.2323 -2.8231 -0.0000 -0.0000
 -4.5607 35.4793 -11.6847 -3.0439 -8.0904 -6.8365 1.2541 1.7734 12.4049 -0.1310 6.8860 -7.9932 9.1503 23.5879 5.4572 -58.9459 -8.2569 -17.8941 -4.0091 0.0000 35.0128 1.0787 8.6381 -7.1454 33.1476 -0.0000 26.2537 -14.8355 -0.1426 -22.5542 -19.3934 0.5635 9.1914 15.6410 -0.0000 35.3721 0.8664 -2.1515 21.9410 32.8623 0.0000 -24.3270 11.1850 13.5103 0.7180 -9.3863 -0.0000 -0.0000 -15.0334 32.3108 7.9119 20.9975 0.0000 -0.0000 -0.0711 0.1241 5.2462 12.0725 0.0000 -0.0000 -15.5674 -27.5455 -4.1628 -2.8583 0.0000 0.0000
 -4.5728 35.4766 -11.6624 -3.0737 -7.9577 -6.8122 1.2367 1.7091 12.4148 -0.0665 6.8681 -8.1831 9.1430 23.5694 5.3945 -58.9753 -8.2791 -17.9716 -4.0597 0.0000 34.9987 1.0538 8.4311 -7.1506 33.1476 -0.0000 26.2537 -14.8709 -0.1290 -22.6349 -19.4344 0.5043 9.1540 15.6416 -0.0000 35.4139 0.8579 -2.1281 21.9617 32.8623 0.0000 -24.3270 11.2153 13.5806 0.7217 -9.3298 0.0000 -0.0000 -15.0548 32.1364 7.8551 21.0218 -0.0000 0.0000 0.1430 -0.0307 5.2251 11.5566 0.0000 0.0000 -14.6594 -27.6586 -3.9971 -2.9349 -0.0000 -0.0000
 -4.5848 35.4714 -11.6398 -3.0917 -7.8144 -6.7486 1.2055 1.6078 12.3650 0.0159 6.8671 -8.3345 9.1648 23.5780 5.3330 -58.9740 -8.3474 -18.0395 -4.0679 0.0000 34.9228 1.0622 8.5331 -7.1226 33.1476 -0.0000 26.2537 -14.8992 -0.0924 -22.6853 -19.4020 0.4823 9.1057 15.5700 -0.0000 35.3309 0.8260 -2.0550 21.9026 32.8623 0.0000 -24.3270 11.2394 13.6175 0.6905 -9.2672 0.0000 -0.0000 -15.0868 31.9840 7.8233 21.0732 -0.0000 0.0000 0.3648 -0.2301 5.1713 11.0062 -0.0000 0.0000 -13.5264 -27.6303 -3.8431 -2.9572 -0.0000 0.0000
 -4.5981 35.4636 -11.6208 -3.0837 -7.6923 -6.6428 1.1337 1.5695 12.2572 0.1135 6.8507 -8.4510 9.1615 23.5179 5.3142 -58.9328 -8.4121 -18.0656 -4.0457 0.0000 34.8902 1.0674 8.5796 -7.1187 33.1476 -0.0000 26.2537 -14.8970 -0.1021 -22.7344 -19.4367 0.4088 9.0568 15.5863 -0.0000 35.3741 0.8178 -2.0267 21.9799 32.8623 0.0000 -24.3270 11.2364 13.6455 0.6215 -9.1985 0.0000 0.0000 -15.0886 31.8664 7.7534 21.0252 -0.0000 0.0000 0.5477 -0.3128 5.0851 10.4645 0.0000 -0.0000 -12.1254 -27.5692 -3.6981 -2.9884 -0.0000 -0.0000
 -4.6158 35.4529 -11.5985 -3.0859 -7.5756 -6.5067 1.0674 1.5335 12.0883 0.1994 6.8213 -8.5238 9.1369 23.4644 5.3252 -58.8411 -8.5088 -18.0756 -3.9401 0.0000 34.7307 0.9987 8.2463 -6.9295 33.1476 -0.0000 26.2537 -14.9134 -0.1069 -22.7550 -19.4384 0.3382 9.0190 15.6556 -0.0000 35.3014 0.8591 -2.1352 21.9237 32.8623 0.0000 -24.3270 11.2280 13.7908 0.5230 -9.0776 -0.0000 -0.0000 -15.1969 31.6092 7.7575 21.2453 -0.0000 0.0000 0.7709 -0.4138 4.9755 9.8886 -0.0000 -0.0000 -10.5339 -27.2939 -3.7928 -2.2010 -0.0000 0.0000
